:FULLY-SPECIFIED
:DEGREES
17
root 7.81876 15.7887 -33.1343 7.46859 -7.06188 -7.15462
lfemur -40.5958 1.9656 -6.44928
ltibia 19.2998
lfoot -14.8346 14.5244
ltoes -14.0206
rfemur 16.1594 7.06752 31.6728
rtibia -9.54166e-15
rfoot -11.62 -0.921632
rtoes -17.8551
lowerback -7.43755 1.70498 4.17445
upperback -1.196 1.82738 3.20256
thorax 2.95827 0.935382 1.15017
lowerneck -19.7485 -4.68328 -11.7282
upperneck 15.8048 -6.14693 15.0036
head 9.08035 -2.0734 6.32779
lclavicle 3.21472e-15 -5.76476e-15
lhumerus -42.1697 -9.117 90.6634
lradius 27.323
lwrist 4.72755
lhand -9.11676 -22.4578
lfingers 7.12502
lthumb 16.834 6.8325
rclavicle 3.21472e-15 -5.76476e-15
rhumerus -43.1759 19.9334 -91.8226
rradius 62.0682
rwrist -32.7143
rhand -30.2718 -30.2173
rfingers 7.12502
rthumb -3.57996 -60.1669
18
root 7.8401 15.7587 -32.9757 7.62766 -7.35165 -7.36345
lfemur -40.617 2.64317 -6.66111
ltibia 19.5867
lfoot -14.6466 14.207
ltoes -14.315
rfemur 16.8148 7.20567 31.6189
rtibia -2.54444e-14
rfoot -11.5421 -0.0895874
rtoes -14.7799
lowerback -7.66373 1.8477 4.28124
upperback -1.26769 1.99277 3.30682
thorax 3.01193 1.01793 1.22191
lowerneck -19.5989 -4.83063 -11.5839
upperneck 15.7545 -6.32184 14.6174
head 9.04142 -2.19091 6.13278
lclavicle 1.53965e-14 1.27222e-14
lhumerus -42.5113 -9.37442 90.9694
lradius 27.1373
lwrist 4.74288
lhand -9.31754 -22.1336
lfingers 7.12502
lthumb 16.6408 7.17308
rclavicle 1.53965e-14 1.27222e-14
rhumerus -43.5164 19.7558 -92.0115
rradius 61.9459
rwrist -31.9622
rhand -30.2738 -30.5658
rfingers 7.12502
rthumb -3.5819 -60.5154
19
root 7.86565 15.7568 -32.8137 7.64245 -7.55784 -7.37374
lfemur -40.6058 3.30309 -7.19562
ltibia 20.2103
lfoot -13.6412 13.7936
ltoes -14.9885
rfemur 16.9643 7.1741 31.5656
rtibia -7.31528e-14
rfoot -8.85313 0.565575
rtoes -55.5312
lowerback -7.76179 1.81481 4.18401
upperback -1.25534 1.94859 3.33358
thorax 3.07482 0.995535 1.30307
lowerneck -19.6251 -4.96134 -10.8734
upperneck 15.4848 -6.52853 13.9069
head 8.93089 -2.31632 5.71228
lclavicle -1.69464e-14 -1.51076e-14
lhumerus -42.7405 -9.32129 90.9495
lradius 26.9523
lwrist 4.60946
lhand -9.48879 -22.14
lfingers 7.12502
lthumb 16.4759 7.18039
rclavicle -1.69464e-14 -1.51076e-14
rhumerus -43.6825 19.7512 -92.3721
rradius 61.7785
rwrist -31.2041
rhand -30.0403 -31.0598
rfingers 7.12502
rthumb -3.35642 -61.0131
20
root 7.89808 15.7502 -32.6519 7.51924 -7.79791 -7.19806
lfemur -40.5171 3.9878 -7.96179
ltibia 21.0838
lfoot -12.8039 13.1422
ltoes -14.803
rfemur 17.5277 7.16422 31.1863
rtibia -2.54444e-14
rfoot -12.5631 -0.280741
rtoes -42.8341
lowerback -7.77071 1.68944 3.96254
upperback -1.16892 1.79433 3.36219
thorax 3.16043 0.917806 1.44242
lowerneck -20.1561 -4.6434 -11.3204
upperneck 16.113 -6.07732 14.4094
head 9.21095 -2.05604 6.05993
lclavicle 2.6429e-14 5.38706e-14
lhumerus -42.8736 -8.72646 90.7905
lradius 26.6655
lwrist 4.14811
lhand -9.74015 -22.8723
lfingers 7.12502
lthumb 16.2339 6.46807
rclavicle 2.6429e-14 5.38706e-14
rhumerus -43.8776 20.0788 -92.6299
rradius 61.6121
rwrist -30.6058
rhand -30.2508 -31.5477
rfingers 7.12502
rthumb -3.55964 -61.4977
21
root 7.92992 15.7415 -32.4889 7.54831 -7.90581 -7.15011
lfemur -40.6278 4.41042 -8.41112
ltibia 22.0746
lfoot -12.2596 12.4536
ltoes -13.7252
rfemur 18.0699 7.07461 30.918
rtibia 1.59028e-14
rfoot -13.7325 -0.562105
rtoes -35.8603
lowerback -8.07782 1.59696 3.93508
upperback -1.02375 1.64292 3.43778
thorax 3.47905 0.845287 1.53362
lowerneck -20.5044 -4.53904 -11.784
upperneck 16.3277 -5.86782 14.8155
head 9.34669 -1.93175 6.33106
lclavicle -1.70582e-14 2.78299e-15
lhumerus -42.8387 -8.2418 90.7684
lradius 26.3584
lwrist 3.53399
lhand -10.3578 -24.6384
lfingers 7.12502
lthumb 15.6391 4.74951
rclavicle -1.70582e-14 2.78299e-15
rhumerus -43.8481 20.5528 -92.7472
rradius 61.2729
rwrist -30.2909
rhand -30.557 -31.2266
rfingers 7.12502
rthumb -3.85534 -61.1715
22
root 7.9567 15.7293 -32.3229 7.60265 -7.93959 -7.32385
lfemur -40.8369 4.80974 -8.53285
ltibia 23.1224
lfoot -11.1383 11.6712
ltoes -12.5122
rfemur 18.6173 6.9311 30.9264
rtibia 9.54166e-15
rfoot -11.5337 -0.60355
rtoes -33.2854
lowerback -8.29495 1.5605 4.01713
upperback -0.981349 1.56476 3.57078
thorax 3.64286 0.808179 1.62539
lowerneck -20.553 -4.52807 -11.8326
upperneck 16.2629 -5.82286 14.8054
head 9.32736 -1.91379 6.34034
lclavicle 2.80535e-14 1.19271e-14
lhumerus -42.9256 -8.26034 90.9601
lradius 26.0293
lwrist 3.13755
lhand -11.5819 -26.6524
lfingers 7.12502
lthumb 14.4599 2.82383
rclavicle 2.80535e-14 1.19271e-14
rhumerus -44.003 20.7883 -92.9071
rradius 60.9938
rwrist -30.1264
rhand -30.1647 -30.8714
rfingers 7.12502
rthumb -3.47655 -60.8228
23
root 7.98375 15.7149 -32.154 7.56572 -8.23765 -7.409
lfemur -41.0029 5.48954 -8.78898
ltibia 24.1735
lfoot -8.76984 11.3006
ltoes -14.7896
rfemur 19.2561 7.02801 30.7908
rtibia 3.18055e-15
rfoot -10.3002 -0.476702
rtoes -31.2301
lowerback -8.26011 1.60924 3.91983
upperback -1.03267 1.63827 3.69823
thorax 3.56376 0.841522 1.81845
lowerneck -20.5383 -4.52561 -11.6861
upperneck 16.3125 -5.8044 14.5044
head 9.32228 -1.92669 6.20754
lclavicle 2.50966e-14 6.87795e-14
lhumerus -43.1467 -8.34498 91.2351
lradius 25.6138
lwrist 2.96108
lhand -11.3148 -26.0925
lfingers 7.12502
lthumb 14.7172 3.36506
rclavicle 2.50966e-14 6.87795e-14
rhumerus -44.388 20.8118 -93.0652
rradius 60.7486
rwrist -29.8985
rhand -29.8628 -31.0506
rfingers 7.12502
rthumb -3.18498 -61.0066
24
root 8.00929 15.7247 -31.983 7.55306 -8.64511 -7.30017
lfemur -41.2418 6.38375 -9.34248
ltibia 25.261
lfoot -6.22382 11.1462
ltoes -16.964
rfemur 19.8148 7.22487 30.4166
rtibia -5.08889e-14
rfoot -9.73586 -0.286493
rtoes -30.649
lowerback -8.36509 1.61989 3.59539
upperback -0.97574 1.66694 3.82757
thorax 3.66851 0.851396 2.14305
lowerneck -20.6934 -4.51172 -11.8141
upperneck 16.3396 -5.72413 14.4699
head 9.34974 -1.89527 6.23068
lclavicle -1.20451e-14 -1.19271e-14
lhumerus -43.269 -7.98188 91.3328
lradius 25.3703
lwrist 2.51123
lhand -8.68597 -23.5137
lfingers 7.12502
lthumb 17.2487 5.74082
rclavicle -1.20451e-14 -1.19271e-14
rhumerus -44.5591 20.9502 -93.1003
rradius 60.5213
rwrist -29.588
rhand -29.9582 -31.1887
rfingers 7.12502
rthumb -3.27709 -61.1433
25
root 8.03884 15.7248 -31.8156 7.59314 -8.77254 -7.11477
lfemur -41.6554 6.97168 -9.94083
ltibia 26.5118
lfoot -4.16036 10.5947
ltoes -12.8836
rfemur 20.4081 7.16133 29.9638
rtibia -1.90833e-14
rfoot -9.50156 -0.0445072
rtoes -31.085
lowerback -8.579 1.55619 3.24874
upperback -0.888146 1.59372 3.90326
thorax 3.86832 0.810621 2.41742
lowerneck -20.7994 -4.50374 -11.933
upperneck 16.0969 -5.65798 14.5579
head 9.28255 -1.86109 6.28561
lclavicle 9.50439e-16 5.96354e-15
lhumerus -43.4747 -7.83663 91.5286
lradius 25.412
lwrist 2.29711
lhand -9.32305 -23.2682
lfingers 7.12502
lthumb 16.6355 6.03893
rclavicle 9.50439e-16 5.96354e-15
rhumerus -44.6183 20.9463 -93.1131
rradius 60.2972
rwrist -29.183
rhand -30.3614 -32.4585
rfingers 7.12502
rthumb -3.6665 -62.4067
26
root 8.0718 15.6962 -31.6537 7.66007 -8.62184 -6.98028
lfemur -42.2122 7.1924 -10.3885
ltibia 27.9453
lfoot -2.42876 9.94718
ltoes -7.18048
rfemur 21.0382 6.84095 29.5854
rtibia -2.54444e-14
rfoot -8.92176 -0.0372881
rtoes -24.3622
lowerback -8.69025 1.44496 3.00346
upperback -0.905391 1.46229 3.93428
thorax 3.90771 0.741536 2.57507
lowerneck -20.9619 -4.53056 -11.7055
upperneck 16.0223 -5.68714 14.3128
head 9.27449 -1.87989 6.14902
lclavicle -1.63252e-14 -4.77083e-15
lhumerus -43.7791 -8.07711 91.8838
lradius 25.4599
lwrist 2.44678
lhand -15.1262 -26.9518
lfingers 7.12502
lthumb 11.043 2.73767
rclavicle -1.63252e-14 -4.77083e-15
rhumerus -44.6333 20.9186 -93.287
rradius 59.6405
rwrist -28.8891
rhand -30.7001 -33.0316
rfingers 7.12502
rthumb -3.99353 -62.9739
27
root 8.10381 15.6779 -31.4868 7.7452 -8.44692 -6.97722
lfemur -42.7763 7.59908 -10.8186
ltibia 29.4276
lfoot -1.28713 9.41507
ltoes -6.94272
rfemur 21.6062 6.50996 29.3578
rtibia -3.18055e-15
rfoot -8.33698 -1.06325
rtoes 3.61817
lowerback -8.81713 1.32831 2.94539
upperback -0.942207 1.30523 3.97714
thorax 3.94135 0.662346 2.63672
lowerneck -21.163 -4.55331 -11.5231
upperneck 16.1126 -5.72538 14.1334
head 9.33499 -1.89653 6.0493
lclavicle -7.48549e-15 -2.18663e-14
lhumerus -43.995 -8.1774 92.075
lradius 25.382
lwrist 2.4887
lhand -9.03565 -22.037
lfingers 7.12502
lthumb 16.9121 7.24666
rclavicle -7.48549e-15 -2.18663e-14
rhumerus -44.7013 20.9519 -93.4939
rradius 58.8441
rwrist -28.7311
rhand -30.0352 -30.116
rfingers 7.12502
rthumb -3.35142 -60.0694
28
root 8.14471 15.6762 -31.3122 7.48167 -8.12929 -6.68471
lfemur -42.9402 7.70179 -11.5482
ltibia 30.879
lfoot -0.719346 9.08786
ltoes -8.78255
rfemur 22.4246 5.96746 28.8458
rtibia 9.54166e-15
rfoot -6.32025 0.427299
rtoes -23.5732
lowerback -8.65234 1.16067 2.79294
upperback -0.920656 1.10895 3.89609
thorax 3.87477 0.563303 2.60964
lowerneck -21.1388 -4.56366 -11.6133
upperneck 15.9699 -5.72498 14.2506
head 9.28891 -1.89209 6.10327
lclavicle -1.28527e-14 1.51076e-14
lhumerus -44.1611 -8.24196 92.1897
lradius 25.125
lwrist 2.49473
lhand -2.61045 -20.4054
lfingers 7.12502
lthumb 23.0878 8.23141
rclavicle -1.28527e-14 1.51076e-14
rhumerus -44.9363 20.7422 -93.6095
rradius 58.3165
rwrist -28.3428
rhand -29.5387 -29.8738
rfingers 7.12502
rthumb -2.87193 -59.8342
29
root 8.20026 15.6713 -31.1354 6.66507 -7.33622 -6.11627
lfemur -42.506 6.91185 -12.3418
ltibia 32.1918
lfoot -0.294496 8.76737
ltoes -8.03897
rfemur 23.7249 4.88 28.0777
rtibia -5.725e-14
rfoot -7.16078 -1.77909
rtoes 10.3907
lowerback -7.94776 0.77679 2.47883
upperback -0.806413 0.664143 3.78965
thorax 3.60753 0.338625 2.60952
lowerneck -21.2917 -4.51596 -11.7534
upperneck 16.0578 -5.6034 14.234
head 9.33163 -1.83993 6.1435
lclavicle -2.60905e-14 -3.97569e-14
lhumerus -44.299 -8.07332 92.246
lradius 24.7552
lwrist 2.05739
lhand 5.34687 -20.5687
lfingers 7.12502
lthumb 30.7008 6.88937
rclavicle -2.60905e-14 -3.97569e-14
rhumerus -45.1955 20.5754 -93.664
rradius 57.8213
rwrist -27.9142
rhand -29.9049 -33.6041
rfingers 7.12502
rthumb -3.22564 -63.5595
